<mxfile host="app.diagrams.net" modified="2023-06-06T13:38:52.115Z" agent="Mozilla/5.0 (Windows NT 10.0; Win64; x64) AppleWebKit/537.36 (KHTML, like Gecko) Chrome/113.0.0.0 Safari/537.36" etag="veq-icJQmqy_FJng9hfl" version="21.2.7" type="device">
  <diagram name="Página-1" id="MhwgeXGh7ETqcRFvYD1L">
    <mxGraphModel dx="880" dy="476" grid="1" gridSize="10" guides="1" tooltips="1" connect="1" arrows="1" fold="1" page="1" pageScale="1" pageWidth="827" pageHeight="1169" math="0" shadow="0">
      <root>
        <mxCell id="0" />
        <mxCell id="1" parent="0" />
        <mxCell id="3_S--qRCnbt-2Iec_L_W-3" value="" style="edgeStyle=orthogonalEdgeStyle;rounded=0;orthogonalLoop=1;jettySize=auto;html=1;" edge="1" parent="1" source="3_S--qRCnbt-2Iec_L_W-1" target="3_S--qRCnbt-2Iec_L_W-2">
          <mxGeometry relative="1" as="geometry" />
        </mxCell>
        <mxCell id="3_S--qRCnbt-2Iec_L_W-1" value="Início" style="rounded=0;whiteSpace=wrap;html=1;" vertex="1" parent="1">
          <mxGeometry x="330" y="40" width="120" height="60" as="geometry" />
        </mxCell>
        <mxCell id="3_S--qRCnbt-2Iec_L_W-5" value="Cadastrar RFID/Digital" style="edgeStyle=orthogonalEdgeStyle;rounded=0;orthogonalLoop=1;jettySize=auto;html=1;exitX=1;exitY=0.5;exitDx=0;exitDy=0;entryX=0.5;entryY=0;entryDx=0;entryDy=0;" edge="1" parent="1" source="3_S--qRCnbt-2Iec_L_W-2" target="3_S--qRCnbt-2Iec_L_W-18">
          <mxGeometry x="0.4545" relative="1" as="geometry">
            <mxPoint x="480" y="290" as="targetPoint" />
            <mxPoint as="offset" />
          </mxGeometry>
        </mxCell>
        <mxCell id="3_S--qRCnbt-2Iec_L_W-2" value="Consultar ação ao servidor" style="rounded=0;whiteSpace=wrap;html=1;" vertex="1" parent="1">
          <mxGeometry x="330" y="180" width="120" height="60" as="geometry" />
        </mxCell>
        <mxCell id="3_S--qRCnbt-2Iec_L_W-10" value="" style="edgeStyle=orthogonalEdgeStyle;rounded=0;orthogonalLoop=1;jettySize=auto;html=1;" edge="1" parent="1" source="3_S--qRCnbt-2Iec_L_W-4" target="3_S--qRCnbt-2Iec_L_W-9">
          <mxGeometry relative="1" as="geometry" />
        </mxCell>
        <mxCell id="3_S--qRCnbt-2Iec_L_W-4" value="Obter Valor lido no sensor RFID/Digital" style="whiteSpace=wrap;html=1;rounded=0;" vertex="1" parent="1">
          <mxGeometry x="420" y="405" width="120" height="60" as="geometry" />
        </mxCell>
        <mxCell id="3_S--qRCnbt-2Iec_L_W-12" value="Sim" style="edgeStyle=orthogonalEdgeStyle;rounded=0;orthogonalLoop=1;jettySize=auto;html=1;" edge="1" parent="1" source="3_S--qRCnbt-2Iec_L_W-9" target="3_S--qRCnbt-2Iec_L_W-11">
          <mxGeometry relative="1" as="geometry" />
        </mxCell>
        <mxCell id="3_S--qRCnbt-2Iec_L_W-14" value="" style="edgeStyle=orthogonalEdgeStyle;rounded=0;orthogonalLoop=1;jettySize=auto;html=1;" edge="1" parent="1" source="3_S--qRCnbt-2Iec_L_W-9" target="3_S--qRCnbt-2Iec_L_W-13">
          <mxGeometry relative="1" as="geometry" />
        </mxCell>
        <mxCell id="3_S--qRCnbt-2Iec_L_W-9" value="Sucesso?" style="rhombus;whiteSpace=wrap;html=1;rounded=0;" vertex="1" parent="1">
          <mxGeometry x="440" y="505" width="80" height="80" as="geometry" />
        </mxCell>
        <mxCell id="3_S--qRCnbt-2Iec_L_W-11" value="Buzzer SUCESSO&lt;br&gt;Led Verde&lt;br&gt;Enviar valor lido ao Servidor" style="whiteSpace=wrap;html=1;rounded=0;" vertex="1" parent="1">
          <mxGeometry x="620" y="515" width="120" height="60" as="geometry" />
        </mxCell>
        <mxCell id="3_S--qRCnbt-2Iec_L_W-15" style="edgeStyle=orthogonalEdgeStyle;rounded=0;orthogonalLoop=1;jettySize=auto;html=1;entryX=0;entryY=0.5;entryDx=0;entryDy=0;exitX=0.5;exitY=0;exitDx=0;exitDy=0;" edge="1" parent="1" source="3_S--qRCnbt-2Iec_L_W-13" target="3_S--qRCnbt-2Iec_L_W-4">
          <mxGeometry relative="1" as="geometry" />
        </mxCell>
        <mxCell id="3_S--qRCnbt-2Iec_L_W-13" value="Buzzer ERRO&lt;br&gt;Led Vermelho" style="whiteSpace=wrap;html=1;rounded=0;" vertex="1" parent="1">
          <mxGeometry x="260" y="515" width="120" height="60" as="geometry" />
        </mxCell>
        <mxCell id="3_S--qRCnbt-2Iec_L_W-19" style="edgeStyle=orthogonalEdgeStyle;rounded=0;orthogonalLoop=1;jettySize=auto;html=1;entryX=0.5;entryY=0;entryDx=0;entryDy=0;" edge="1" parent="1" source="3_S--qRCnbt-2Iec_L_W-18" target="3_S--qRCnbt-2Iec_L_W-4">
          <mxGeometry relative="1" as="geometry" />
        </mxCell>
        <mxCell id="3_S--qRCnbt-2Iec_L_W-18" value="Sinalizar ação no LCD" style="rounded=0;whiteSpace=wrap;html=1;" vertex="1" parent="1">
          <mxGeometry x="420" y="290" width="120" height="60" as="geometry" />
        </mxCell>
      </root>
    </mxGraphModel>
  </diagram>
</mxfile>
